<?xml version="1.0" encoding="UTF-8" standalone="no"?>
<svg width="245px" height="190px" viewBox="0 0 245 190" version="1.1" xmlns="http://www.w3.org/2000/svg" xmlns:xlink="http://www.w3.org/1999/xlink">
<g id="Logo" stroke="none" stroke-width="1" fill="#ffffff" fill-rule="evenodd">
<path d="M122.474134,82.1690476 L49.4575203,9.15243378 C38.3335184,-1.9715681 20.2824856,-1.97739905 9.15254326,9.15254326 C2.73404875,15.5710378 0.0170009576,24.2866724 1,32.6500867 L1,161.500155 C1,177.231869 13.7598846,190 29.5,190 C45.2435762,190 58,177.240185 58,161.500155 L58,98.3050865 L99.6988678,140.003954 C100.445773,140.97391 101.263664,141.906845 102.152543,142.795725 C107.759951,148.403132 115.124121,151.183976 122.474134,151.140507 C129.824148,151.183976 137.188317,148.403132 142.795725,142.795725 C143.684604,141.906845 144.502495,140.97391 145.2494,140.003954 L187,98.2533547 L187,161.500155 C187,177.231869 199.759885,190 215.5,190 C231.243576,190 244,177.240185 244,161.500155 L244,32.1759102 C244.827327,23.9583103 242.093009,15.4498275 235.795725,9.15254326 C224.665783,-1.97739905 206.61475,-1.9715681 195.490748,9.15243378 L122.474134,82.1690476 Z" id="Combined-Shape"></path>
</g>
</svg>